# xmcd
#
# Track frame offsets:
#	150
#	15848
#	33238
#	49723
#	67389
#	84702
#	101346
#	119356
#	135445
#	149996
#	167333
#	184157
#	201428
#	217251
#	232739
#	248044
#	264784
#	281340
#	297237
#
# Disc length: 4189 seconds
#
# Revision: 0
# Processed by: cddbd v1.5.2PL0 Copyright (c) Steve Scherf et al.
# Submitted via: EasyCDDAExtractor 9.0.0.1
#
DISCID=14105b13
DTITLE=Various Artist - Techno News
DYEAR=2001
DGENRE=Techno
TTITLE0=martini - campione2000
TTITLE1=level3 - amiceo e`
TTITLE2=algorithm - beat a bit
TTITLE3=varaderos - sha la long
TTITLE4=basement three - everytime i say
TTITLE5=perfect phase - goal !!
TTITLE6=paps 'N' skar - turn around
TTITLE7=basement three - free the music
TTITLE8=sm-trax - at the club
TTITLE9=Dj groovy - claro que si
TTITLE10=Dj tommy B - everybody is drinking
TTITLE11=kleine lisa vs tekknoheimer and foggy - rappelkiste
TTITLE12=those2 - get wicked
TTITLE13=dj ? vs pirate killer - 8811967
TTITLE14=chuky x - teckkno e troppo forte
TTITLE15=central seven - party people
TTITLE16=Dj visage - the total beat
TTITLE17=Dj misah and Dj tim - access
TTITLE18=buzz - we like it
EXTD=
EXTT0=
EXTT1=
EXTT2=
EXTT3=
EXTT4=
EXTT5=
EXTT6=
EXTT7=
EXTT8=
EXTT9=
EXTT10=
EXTT11=
EXTT12=
EXTT13=
EXTT14=
EXTT15=
EXTT16=
EXTT17=
EXTT18=
PLAYORDER=
